name rise30.3154peak39.0474fall46.5389.mot
datacolumns 19
datarows 33
range 6.29498300000000 6.34830800000000
endheader
time	ground_force1_vx	ground_force1_vy	ground_force1_vz	ground_force1_px	ground_force1_py	ground_force1_pz	ground_force2_vx	ground_force2_vy	ground_force2_vz	ground_force2_px	ground_force2_py	ground_force2_pz	ground_torque1_x	ground_torque1_y	ground_torque1_z	ground_torque2_x	ground_torque2_y	ground_torque2_z	
6.29498300000000	11.24471800000000	711.30373599999996	45.03670300000000	0.20968100000000	0.00000000000000	0.13551200000000	0.00000000000000	0.00000000000000	0.00000000000000	0.00000000000000	0.00000000000000	0.00000000000000	0.00000000000000	15.03069400000000	0.00000000000000	0.00000000000000	0.00000000000000	0.00000000000000	
6.29665000000000	10.94141100000000	712.66600800000003	45.21615500000000	0.20906000000000	0.00000000000000	0.13547800000000	0.00000000000000	0.00000000000000	0.00000000000000	0.00000000000000	0.00000000000000	0.00000000000000	0.00000000000000	15.14889500000000	0.00000000000000	0.00000000000000	0.00000000000000	0.00000000000000	
6.29831700000000	10.62270200000000	714.07010800000000	45.40411700000000	0.20842200000000	0.00000000000000	0.13544700000000	0.00000000000000	0.00000000000000	0.00000000000000	0.00000000000000	0.00000000000000	0.00000000000000	0.00000000000000	15.27408600000000	0.00000000000000	0.00000000000000	0.00000000000000	0.00000000000000	
6.29998200000000	10.28797300000000	715.51430400000004	45.60005700000000	0.20776600000000	0.00000000000000	0.13541700000000	0.00000000000000	0.00000000000000	0.00000000000000	0.00000000000000	0.00000000000000	0.00000000000000	0.00000000000000	15.40602200000000	0.00000000000000	0.00000000000000	0.00000000000000	0.00000000000000	
6.30164800000000	9.93665400000000	716.99683900000002	45.80344000000000	0.20708900000000	0.00000000000000	0.13539000000000	0.00000000000000	0.00000000000000	0.00000000000000	0.00000000000000	0.00000000000000	0.00000000000000	0.00000000000000	15.54445000000000	0.00000000000000	0.00000000000000	0.00000000000000	0.00000000000000	
6.30331300000000	9.56822600000000	718.51594100000000	46.01372500000000	0.20639000000000	0.00000000000000	0.13536500000000	0.00000000000000	0.00000000000000	0.00000000000000	0.00000000000000	0.00000000000000	0.00000000000000	0.00000000000000	15.68910600000000	0.00000000000000	0.00000000000000	0.00000000000000	0.00000000000000	
6.30499200000000	9.18223000000000	720.06982200000004	46.23036800000000	0.20566600000000	0.00000000000000	0.13534300000000	0.00000000000000	0.00000000000000	0.00000000000000	0.00000000000000	0.00000000000000	0.00000000000000	0.00000000000000	15.83972100000000	0.00000000000000	0.00000000000000	0.00000000000000	0.00000000000000	
6.30664200000000	8.77826300000000	721.65667800000006	46.45282500000000	0.20491700000000	0.00000000000000	0.13532200000000	0.00000000000000	0.00000000000000	0.00000000000000	0.00000000000000	0.00000000000000	0.00000000000000	0.00000000000000	15.99601800000000	0.00000000000000	0.00000000000000	0.00000000000000	0.00000000000000	
6.30831200000000	8.35598300000000	723.27469599999995	46.68055100000000	0.20414100000000	0.00000000000000	0.13530400000000	0.00000000000000	0.00000000000000	0.00000000000000	0.00000000000000	0.00000000000000	0.00000000000000	0.00000000000000	16.15771400000000	0.00000000000000	0.00000000000000	0.00000000000000	0.00000000000000	
6.30997600000000	7.91511100000000	724.92205400000000	46.91300500000000	0.20333800000000	0.00000000000000	0.13528800000000	0.00000000000000	0.00000000000000	0.00000000000000	0.00000000000000	0.00000000000000	0.00000000000000	0.00000000000000	16.32452400000000	0.00000000000000	0.00000000000000	0.00000000000000	0.00000000000000	
6.31164900000000	7.45543200000000	726.59692199999995	47.14964900000000	0.20250600000000	0.00000000000000	0.13527400000000	0.00000000000000	0.00000000000000	0.00000000000000	0.00000000000000	0.00000000000000	0.00000000000000	0.00000000000000	16.49615700000000	0.00000000000000	0.00000000000000	0.00000000000000	0.00000000000000	
6.31331100000000	6.97679900000000	728.29746599999999	47.38995000000000	0.20164500000000	0.00000000000000	0.13526200000000	0.00000000000000	0.00000000000000	0.00000000000000	0.00000000000000	0.00000000000000	0.00000000000000	0.00000000000000	16.67231900000000	0.00000000000000	0.00000000000000	0.00000000000000	0.00000000000000	
6.31497800000000	6.47913000000000	730.02184499999998	47.63338300000000	0.20075500000000	0.00000000000000	0.13525200000000	0.00000000000000	0.00000000000000	0.00000000000000	0.00000000000000	0.00000000000000	0.00000000000000	0.00000000000000	16.85271400000000	0.00000000000000	0.00000000000000	0.00000000000000	0.00000000000000	
6.31665000000000	5.96241200000000	731.76822000000004	47.87943100000000	0.19983600000000	0.00000000000000	0.13524500000000	0.00000000000000	0.00000000000000	0.00000000000000	0.00000000000000	0.00000000000000	0.00000000000000	0.00000000000000	17.03704800000000	0.00000000000000	0.00000000000000	0.00000000000000	0.00000000000000	
6.31831000000000	5.42669800000000	733.53475000000003	48.12758700000000	0.19888700000000	0.00000000000000	0.13523800000000	0.00000000000000	0.00000000000000	0.00000000000000	0.00000000000000	0.00000000000000	0.00000000000000	0.00000000000000	17.22502200000000	0.00000000000000	0.00000000000000	0.00000000000000	0.00000000000000	
6.31998400000000	4.87211300000000	735.31959500000005	48.37735400000000	0.19791000000000	0.00000000000000	0.13523400000000	0.00000000000000	0.00000000000000	0.00000000000000	0.00000000000000	0.00000000000000	0.00000000000000	0.00000000000000	17.41634300000000	0.00000000000000	0.00000000000000	0.00000000000000	0.00000000000000	
6.32164400000000	4.29884500000000	737.12091599999997	48.62824900000000	0.19690400000000	0.00000000000000	0.13523200000000	0.00000000000000	0.00000000000000	0.00000000000000	0.00000000000000	0.00000000000000	0.00000000000000	0.00000000000000	17.61071600000000	0.00000000000000	0.00000000000000	0.00000000000000	0.00000000000000	
6.32331300000000	3.70715400000000	738.93688099999997	48.87980400000000	0.19587100000000	0.00000000000000	0.13523100000000	0.00000000000000	0.00000000000000	0.00000000000000	0.00000000000000	0.00000000000000	0.00000000000000	0.00000000000000	17.80784900000000	0.00000000000000	0.00000000000000	0.00000000000000	0.00000000000000	
6.32497900000000	3.09736200000000	740.76566000000003	49.13156200000000	0.19481100000000	0.00000000000000	0.13523100000000	0.00000000000000	0.00000000000000	0.00000000000000	0.00000000000000	0.00000000000000	0.00000000000000	0.00000000000000	18.00745400000000	0.00000000000000	0.00000000000000	0.00000000000000	0.00000000000000	
6.32664500000000	2.46986000000000	742.60542999999996	49.38308700000000	0.19372600000000	0.00000000000000	0.13523300000000	0.00000000000000	0.00000000000000	0.00000000000000	0.00000000000000	0.00000000000000	0.00000000000000	0.00000000000000	18.20924600000000	0.00000000000000	0.00000000000000	0.00000000000000	0.00000000000000	
6.32831500000000	1.82509800000000	744.45437500000003	49.63395500000000	0.19261700000000	0.00000000000000	0.13523600000000	0.00000000000000	0.00000000000000	0.00000000000000	0.00000000000000	0.00000000000000	0.00000000000000	0.00000000000000	18.41294400000000	0.00000000000000	0.00000000000000	0.00000000000000	0.00000000000000	
6.32997900000000	1.16359300000000	746.31068600000003	49.88376500000000	0.19148500000000	0.00000000000000	0.13524100000000	0.00000000000000	0.00000000000000	0.00000000000000	0.00000000000000	0.00000000000000	0.00000000000000	0.00000000000000	18.61827300000000	0.00000000000000	0.00000000000000	0.00000000000000	0.00000000000000	
6.33164500000000	0.48591600000000	748.17256699999996	50.13213200000000	0.19033300000000	0.00000000000000	0.13524600000000	0.00000000000000	0.00000000000000	0.00000000000000	0.00000000000000	0.00000000000000	0.00000000000000	0.00000000000000	18.82496300000000	0.00000000000000	0.00000000000000	0.00000000000000	0.00000000000000	
6.33331500000000	-0.20730200000000	750.03822600000001	50.37869100000000	0.18916200000000	0.00000000000000	0.13525200000000	0.00000000000000	0.00000000000000	0.00000000000000	0.00000000000000	0.00000000000000	0.00000000000000	0.00000000000000	19.03274700000000	0.00000000000000	0.00000000000000	0.00000000000000	0.00000000000000	
6.33497500000000	-0.91537600000000	751.90588900000000	50.62309800000000	0.18797300000000	0.00000000000000	0.13525900000000	0.00000000000000	0.00000000000000	0.00000000000000	0.00000000000000	0.00000000000000	0.00000000000000	0.00000000000000	19.24136600000000	0.00000000000000	0.00000000000000	0.00000000000000	0.00000000000000	
6.33664900000000	-1.63757100000000	753.77378799999997	50.86502900000000	0.18676900000000	0.00000000000000	0.13526700000000	0.00000000000000	0.00000000000000	0.00000000000000	0.00000000000000	0.00000000000000	0.00000000000000	0.00000000000000	19.45056800000000	0.00000000000000	0.00000000000000	0.00000000000000	0.00000000000000	
6.33830800000000	-2.37310100000000	755.64017200000001	51.10418200000000	0.18555300000000	0.00000000000000	0.13527500000000	0.00000000000000	0.00000000000000	0.00000000000000	0.00000000000000	0.00000000000000	0.00000000000000	0.00000000000000	19.66010500000000	0.00000000000000	0.00000000000000	0.00000000000000	0.00000000000000	
6.33998000000000	-3.12113800000000	757.50330199999996	51.34027700000000	0.18432500000000	0.00000000000000	0.13528300000000	0.00000000000000	0.00000000000000	0.00000000000000	0.00000000000000	0.00000000000000	0.00000000000000	0.00000000000000	19.86973700000000	0.00000000000000	0.00000000000000	0.00000000000000	0.00000000000000	
6.34164800000000	-3.88081200000000	759.36145499999998	51.57305600000000	0.18308900000000	0.00000000000000	0.13529200000000	0.00000000000000	0.00000000000000	0.00000000000000	0.00000000000000	0.00000000000000	0.00000000000000	0.00000000000000	20.07922800000000	0.00000000000000	0.00000000000000	0.00000000000000	0.00000000000000	
6.34331600000000	-4.65121300000000	761.21292400000004	51.80228200000000	0.18184700000000	0.00000000000000	0.13530000000000	0.00000000000000	0.00000000000000	0.00000000000000	0.00000000000000	0.00000000000000	0.00000000000000	0.00000000000000	20.28835100000000	0.00000000000000	0.00000000000000	0.00000000000000	0.00000000000000	
6.34497500000000	-5.43140200000000	763.05601899999999	52.02774400000000	0.18060100000000	0.00000000000000	0.13530900000000	0.00000000000000	0.00000000000000	0.00000000000000	0.00000000000000	0.00000000000000	0.00000000000000	0.00000000000000	20.49688400000000	0.00000000000000	0.00000000000000	0.00000000000000	0.00000000000000	
6.34664300000000	-6.22040500000000	764.88906699999995	52.24924900000000	0.17935300000000	0.00000000000000	0.13531800000000	0.00000000000000	0.00000000000000	0.00000000000000	0.00000000000000	0.00000000000000	0.00000000000000	0.00000000000000	20.70461000000000	0.00000000000000	0.00000000000000	0.00000000000000	0.00000000000000	
6.34830800000000	-7.01722700000000	766.71041500000001	52.46663000000000	0.17810600000000	0.00000000000000	0.13532600000000	0.00000000000000	0.00000000000000	0.00000000000000	0.00000000000000	0.00000000000000	0.00000000000000	0.00000000000000	20.91132000000000	0.00000000000000	0.00000000000000	0.00000000000000	0.00000000000000	
